<mxfile host="app.diagrams.net" agent="Mozilla/5.0 (Windows NT 10.0; Win64; x64) AppleWebKit/537.36 (KHTML, like Gecko) Chrome/135.0.0.0 Safari/537.36" version="27.0.2">
  <diagram name="Page-1" id="TSnMA7QxhnW2TlYhYd6D">
    <mxGraphModel dx="1426" dy="743" grid="1" gridSize="10" guides="1" tooltips="1" connect="1" arrows="1" fold="1" page="1" pageScale="1" pageWidth="850" pageHeight="1100" math="0" shadow="0">
      <root>
        <mxCell id="0" />
        <mxCell id="1" parent="0" />
        <mxCell id="KHAaB5wXIxi3iVw9gV6l-5" style="edgeStyle=orthogonalEdgeStyle;rounded=0;orthogonalLoop=1;jettySize=auto;html=1;exitX=1;exitY=0.5;exitDx=0;exitDy=0;" edge="1" parent="1" source="86PaDoQ9jnDiqfJvNVTQ-1" target="KHAaB5wXIxi3iVw9gV6l-1">
          <mxGeometry relative="1" as="geometry" />
        </mxCell>
        <mxCell id="KHAaB5wXIxi3iVw9gV6l-6" style="edgeStyle=orthogonalEdgeStyle;rounded=0;orthogonalLoop=1;jettySize=auto;html=1;exitX=1;exitY=0.5;exitDx=0;exitDy=0;entryX=0;entryY=0.5;entryDx=0;entryDy=0;" edge="1" parent="1" source="86PaDoQ9jnDiqfJvNVTQ-1" target="KHAaB5wXIxi3iVw9gV6l-2">
          <mxGeometry relative="1" as="geometry" />
        </mxCell>
        <mxCell id="KHAaB5wXIxi3iVw9gV6l-7" style="edgeStyle=orthogonalEdgeStyle;rounded=0;orthogonalLoop=1;jettySize=auto;html=1;exitX=1;exitY=0.5;exitDx=0;exitDy=0;entryX=0;entryY=0.5;entryDx=0;entryDy=0;" edge="1" parent="1" source="86PaDoQ9jnDiqfJvNVTQ-1" target="KHAaB5wXIxi3iVw9gV6l-3">
          <mxGeometry relative="1" as="geometry" />
        </mxCell>
        <mxCell id="KHAaB5wXIxi3iVw9gV6l-8" style="edgeStyle=orthogonalEdgeStyle;rounded=0;orthogonalLoop=1;jettySize=auto;html=1;exitX=1;exitY=0.5;exitDx=0;exitDy=0;entryX=0;entryY=0.5;entryDx=0;entryDy=0;" edge="1" parent="1" source="86PaDoQ9jnDiqfJvNVTQ-1" target="KHAaB5wXIxi3iVw9gV6l-4">
          <mxGeometry relative="1" as="geometry" />
        </mxCell>
        <mxCell id="86PaDoQ9jnDiqfJvNVTQ-1" value="Home Page" style="rounded=1;whiteSpace=wrap;html=1;" parent="1" vertex="1">
          <mxGeometry x="20" y="120" width="120" height="60" as="geometry" />
        </mxCell>
        <mxCell id="KHAaB5wXIxi3iVw9gV6l-12" style="edgeStyle=orthogonalEdgeStyle;rounded=0;orthogonalLoop=1;jettySize=auto;html=1;exitX=1;exitY=0.5;exitDx=0;exitDy=0;" edge="1" parent="1" source="KHAaB5wXIxi3iVw9gV6l-1" target="KHAaB5wXIxi3iVw9gV6l-11">
          <mxGeometry relative="1" as="geometry" />
        </mxCell>
        <mxCell id="KHAaB5wXIxi3iVw9gV6l-1" value="Add Equipment&amp;nbsp;&lt;div&gt;&lt;span style=&quot;background-color: transparent; color: light-dark(rgb(0, 0, 0), rgb(255, 255, 255));&quot;&gt;Page&lt;/span&gt;&lt;/div&gt;" style="rounded=1;whiteSpace=wrap;html=1;" vertex="1" parent="1">
          <mxGeometry x="200" y="120" width="120" height="60" as="geometry" />
        </mxCell>
        <mxCell id="KHAaB5wXIxi3iVw9gV6l-2" value="Update/Delete Equipment Page" style="rounded=1;whiteSpace=wrap;html=1;" vertex="1" parent="1">
          <mxGeometry x="200" y="240" width="120" height="60" as="geometry" />
        </mxCell>
        <mxCell id="KHAaB5wXIxi3iVw9gV6l-3" value="Search/Report Equipment Page" style="rounded=1;whiteSpace=wrap;html=1;" vertex="1" parent="1">
          <mxGeometry x="200" y="360" width="120" height="60" as="geometry" />
        </mxCell>
        <mxCell id="KHAaB5wXIxi3iVw9gV6l-4" value="About Us/Contact Us Page" style="rounded=1;whiteSpace=wrap;html=1;" vertex="1" parent="1">
          <mxGeometry x="200" y="480" width="120" height="60" as="geometry" />
        </mxCell>
        <mxCell id="KHAaB5wXIxi3iVw9gV6l-11" value="Display Entry Form" style="shape=step;perimeter=stepPerimeter;whiteSpace=wrap;html=1;fixedSize=1;" vertex="1" parent="1">
          <mxGeometry x="370" y="120" width="150" height="60" as="geometry" />
        </mxCell>
        <mxCell id="KHAaB5wXIxi3iVw9gV6l-27" style="edgeStyle=orthogonalEdgeStyle;rounded=0;orthogonalLoop=1;jettySize=auto;html=1;exitX=0.855;exitY=1;exitDx=0;exitDy=-4.35;exitPerimeter=0;entryX=0.5;entryY=0;entryDx=0;entryDy=0;" edge="1" parent="1" source="KHAaB5wXIxi3iVw9gV6l-13" target="KHAaB5wXIxi3iVw9gV6l-16">
          <mxGeometry relative="1" as="geometry" />
        </mxCell>
        <mxCell id="KHAaB5wXIxi3iVw9gV6l-32" style="edgeStyle=orthogonalEdgeStyle;rounded=0;orthogonalLoop=1;jettySize=auto;html=1;exitX=0.5;exitY=1;exitDx=0;exitDy=0;exitPerimeter=0;" edge="1" parent="1" source="KHAaB5wXIxi3iVw9gV6l-13" target="KHAaB5wXIxi3iVw9gV6l-20">
          <mxGeometry relative="1" as="geometry">
            <Array as="points">
              <mxPoint x="630" y="403" />
            </Array>
          </mxGeometry>
        </mxCell>
        <mxCell id="KHAaB5wXIxi3iVw9gV6l-13" value="Database" style="shape=cylinder3;whiteSpace=wrap;html=1;boundedLbl=1;backgroundOutline=1;size=15;" vertex="1" parent="1">
          <mxGeometry x="600" y="110" width="60" height="80" as="geometry" />
        </mxCell>
        <mxCell id="KHAaB5wXIxi3iVw9gV6l-14" style="edgeStyle=orthogonalEdgeStyle;rounded=0;orthogonalLoop=1;jettySize=auto;html=1;exitX=1;exitY=0.5;exitDx=0;exitDy=0;entryX=0;entryY=0.5;entryDx=0;entryDy=0;entryPerimeter=0;" edge="1" parent="1" source="KHAaB5wXIxi3iVw9gV6l-11" target="KHAaB5wXIxi3iVw9gV6l-13">
          <mxGeometry relative="1" as="geometry" />
        </mxCell>
        <mxCell id="KHAaB5wXIxi3iVw9gV6l-15" value="Information Saved to Database" style="text;html=1;align=center;verticalAlign=middle;whiteSpace=wrap;rounded=0;" vertex="1" parent="1">
          <mxGeometry x="530" y="90" width="60" height="30" as="geometry" />
        </mxCell>
        <mxCell id="KHAaB5wXIxi3iVw9gV6l-18" style="edgeStyle=orthogonalEdgeStyle;rounded=0;orthogonalLoop=1;jettySize=auto;html=1;exitX=1;exitY=0.5;exitDx=0;exitDy=0;entryX=1;entryY=0;entryDx=0;entryDy=27.5;entryPerimeter=0;" edge="1" parent="1" source="KHAaB5wXIxi3iVw9gV6l-16" target="KHAaB5wXIxi3iVw9gV6l-13">
          <mxGeometry relative="1" as="geometry" />
        </mxCell>
        <mxCell id="KHAaB5wXIxi3iVw9gV6l-16" value="Display Pre-populated Form" style="shape=step;perimeter=stepPerimeter;whiteSpace=wrap;html=1;fixedSize=1;" vertex="1" parent="1">
          <mxGeometry x="780" y="230" width="150" height="60" as="geometry" />
        </mxCell>
        <mxCell id="KHAaB5wXIxi3iVw9gV6l-19" value="Information Updated in Database" style="text;html=1;align=center;verticalAlign=middle;whiteSpace=wrap;rounded=0;" vertex="1" parent="1">
          <mxGeometry x="970" y="220" width="60" height="30" as="geometry" />
        </mxCell>
        <mxCell id="KHAaB5wXIxi3iVw9gV6l-22" style="edgeStyle=orthogonalEdgeStyle;rounded=0;orthogonalLoop=1;jettySize=auto;html=1;exitX=1;exitY=0.5;exitDx=0;exitDy=0;entryX=0;entryY=0.5;entryDx=0;entryDy=0;" edge="1" parent="1" source="KHAaB5wXIxi3iVw9gV6l-20" target="KHAaB5wXIxi3iVw9gV6l-21">
          <mxGeometry relative="1" as="geometry" />
        </mxCell>
        <mxCell id="KHAaB5wXIxi3iVw9gV6l-20" value="Display Pre-populated &lt;br&gt;Non-editable Form" style="shape=step;perimeter=stepPerimeter;whiteSpace=wrap;html=1;fixedSize=1;" vertex="1" parent="1">
          <mxGeometry x="710" y="360" width="150" height="60" as="geometry" />
        </mxCell>
        <mxCell id="KHAaB5wXIxi3iVw9gV6l-21" value="Generate Report" style="shape=hexagon;perimeter=hexagonPerimeter2;whiteSpace=wrap;html=1;fixedSize=1;" vertex="1" parent="1">
          <mxGeometry x="920" y="350" width="120" height="80" as="geometry" />
        </mxCell>
        <mxCell id="KHAaB5wXIxi3iVw9gV6l-24" style="edgeStyle=orthogonalEdgeStyle;rounded=0;orthogonalLoop=1;jettySize=auto;html=1;exitX=1;exitY=0.5;exitDx=0;exitDy=0;" edge="1" parent="1" source="KHAaB5wXIxi3iVw9gV6l-3" target="KHAaB5wXIxi3iVw9gV6l-30">
          <mxGeometry relative="1" as="geometry" />
        </mxCell>
        <mxCell id="KHAaB5wXIxi3iVw9gV6l-26" style="edgeStyle=orthogonalEdgeStyle;rounded=0;orthogonalLoop=1;jettySize=auto;html=1;exitX=1;exitY=0.5;exitDx=0;exitDy=0;entryX=0;entryY=0;entryDx=0;entryDy=52.5;entryPerimeter=0;" edge="1" parent="1" source="KHAaB5wXIxi3iVw9gV6l-2" target="KHAaB5wXIxi3iVw9gV6l-13">
          <mxGeometry relative="1" as="geometry">
            <Array as="points">
              <mxPoint x="600" y="270" />
            </Array>
          </mxGeometry>
        </mxCell>
        <mxCell id="KHAaB5wXIxi3iVw9gV6l-30" value="Display Search Bar" style="shape=step;perimeter=stepPerimeter;whiteSpace=wrap;html=1;fixedSize=1;" vertex="1" parent="1">
          <mxGeometry x="360" y="360" width="150" height="60" as="geometry" />
        </mxCell>
        <mxCell id="KHAaB5wXIxi3iVw9gV6l-31" style="edgeStyle=orthogonalEdgeStyle;rounded=0;orthogonalLoop=1;jettySize=auto;html=1;exitX=1;exitY=0.5;exitDx=0;exitDy=0;entryX=0.145;entryY=1;entryDx=0;entryDy=-4.35;entryPerimeter=0;" edge="1" parent="1" source="KHAaB5wXIxi3iVw9gV6l-30" target="KHAaB5wXIxi3iVw9gV6l-13">
          <mxGeometry relative="1" as="geometry" />
        </mxCell>
      </root>
    </mxGraphModel>
  </diagram>
</mxfile>
